<svg xmlns="http://www.w3.org/2000/svg" viewBox="0 0 420 330" role="img" aria-labelledby="title desc">
  <title id="title">青瓷茶杯</title><desc id="desc">原创青瓷茶杯与浅金茶汤涟漪插画</desc>
  <defs>
    <radialGradient id="tea" cx="42%" cy="35%"><stop stop-color="#E8DFC8"/><stop offset=".7" stop-color="#C9A66B"/><stop offset="1" stop-color="#8A6348"/></radialGradient>
    <linearGradient id="cup" x1="0" y1="0" x2="1" y2="1"><stop stop-color="#DDE8DF"/><stop offset=".55" stop-color="#9DB8A5"/><stop offset="1" stop-color="#71806B"/></linearGradient>
    <filter id="shadow"><feGaussianBlur stdDeviation="12"/></filter>
  </defs>
  <ellipse cx="205" cy="287" rx="142" ry="22" fill="#29483A" opacity=".12" filter="url(#shadow)"/>
  <path d="M68 126c7 111 51 162 137 162s130-51 137-162z" fill="url(#cup)" stroke="#71806B" stroke-width="3"/>
  <path d="M340 157c59-9 71 17 61 45-11 31-39 48-83 41" fill="none" stroke="#9DB8A5" stroke-width="17" stroke-linecap="round"/>
  <ellipse cx="205" cy="126" rx="138" ry="62" fill="#F5F0E6" stroke="#71806B" stroke-width="4"/>
  <ellipse cx="205" cy="127" rx="121" ry="49" fill="url(#tea)"/>
  <g fill="none" stroke="#F5F0E6" opacity=".55"><ellipse cx="202" cy="125" rx="52" ry="18"/><ellipse cx="202" cy="125" rx="82" ry="30"/></g>
  <path d="M176 106c18-12 35-10 50 5-20 8-36 6-50-5zM235 141c12-8 24-7 35 4-14 6-26 4-35-4z" fill="#29483A" opacity=".52"/>
  <path d="M120 196c36 22 76 28 119 17" fill="none" stroke="#F5F0E6" stroke-width="5" stroke-linecap="round" opacity=".34"/>
</svg>
